<mxfile host="app.diagrams.net" modified="2024-01-24T18:56:33.390Z" agent="Mozilla/5.0 (Windows NT 10.0; Win64; x64) AppleWebKit/537.36 (KHTML, like Gecko) Chrome/120.0.0.0 Safari/537.36 OPR/106.0.0.0" etag="Ky63Xdl5lzSukXbfeEo0" version="23.0.1" type="device">
  <diagram id="C5RBs43oDa-KdzZeNtuy" name="Page-1">
    <mxGraphModel dx="3824" dy="2391" grid="1" gridSize="10" guides="1" tooltips="1" connect="1" arrows="1" fold="1" page="1" pageScale="1" pageWidth="827" pageHeight="1169" math="0" shadow="0">
      <root>
        <mxCell id="WIyWlLk6GJQsqaUBKTNV-0" />
        <mxCell id="WIyWlLk6GJQsqaUBKTNV-1" parent="WIyWlLk6GJQsqaUBKTNV-0" />
        <mxCell id="Y3jKgYXB_ApYThglsX_Y-104" style="edgeStyle=orthogonalEdgeStyle;rounded=0;orthogonalLoop=1;jettySize=auto;html=1;exitX=0.5;exitY=1;exitDx=0;exitDy=0;entryX=0.5;entryY=0;entryDx=0;entryDy=0;" parent="WIyWlLk6GJQsqaUBKTNV-1" source="ab9UltgPTbyfIHj8jIaH-0" target="Y3jKgYXB_ApYThglsX_Y-24" edge="1">
          <mxGeometry relative="1" as="geometry" />
        </mxCell>
        <mxCell id="ab9UltgPTbyfIHj8jIaH-0" value="Encargados Area EducaciÃ³n Ejecutiva quieren crear un Diplomado" style="html=1;overflow=block;blockSpacing=1;whiteSpace=wrap;fontSize=13.3;fontFamily=Helvetica;fontColor=#ffffff;spacing=3.8;strokeOpacity=0;fillOpacity=100;rounded=1;absoluteArcSize=1;arcSize=7.5;fillColor=#113667;strokeWidth=1.5;lucidId=0H17d6j~ZVl4;" parent="WIyWlLk6GJQsqaUBKTNV-1" vertex="1">
          <mxGeometry x="-910" y="-1069.74" width="163" height="100" as="geometry" />
        </mxCell>
        <mxCell id="ab9UltgPTbyfIHj8jIaH-1" value="" style="html=1;jettySize=18;whiteSpace=wrap;fontSize=13;fontFamily=Helvetica;strokeColor=#333333;strokeOpacity=100;strokeWidth=0.8;rounded=1;arcSize=10;edgeStyle=orthogonalEdgeStyle;startArrow=none;endArrow=block;endFill=1;exitX=0.5;exitY=1;exitPerimeter=0;lucidId=0H17v5CR7Obw;entryX=0.5;entryY=0;entryDx=0;entryDy=0;" parent="WIyWlLk6GJQsqaUBKTNV-1" source="ab9UltgPTbyfIHj8jIaH-0" target="ab9UltgPTbyfIHj8jIaH-3" edge="1">
          <mxGeometry width="100" height="100" relative="1" as="geometry">
            <Array as="points">
              <mxPoint x="-828" y="-840" />
              <mxPoint x="-1740" y="-840" />
            </Array>
            <mxPoint x="-828" y="-860" as="targetPoint" />
          </mxGeometry>
        </mxCell>
        <mxCell id="Y3jKgYXB_ApYThglsX_Y-39" style="edgeStyle=orthogonalEdgeStyle;rounded=0;orthogonalLoop=1;jettySize=auto;html=1;exitX=0.25;exitY=0;exitDx=0;exitDy=0;entryX=0.5;entryY=0;entryDx=0;entryDy=0;" parent="WIyWlLk6GJQsqaUBKTNV-1" source="ab9UltgPTbyfIHj8jIaH-3" target="ab9UltgPTbyfIHj8jIaH-111" edge="1">
          <mxGeometry relative="1" as="geometry" />
        </mxCell>
        <mxCell id="Y3jKgYXB_ApYThglsX_Y-40" style="edgeStyle=orthogonalEdgeStyle;rounded=0;orthogonalLoop=1;jettySize=auto;html=1;exitX=0.25;exitY=0;exitDx=0;exitDy=0;entryX=0.5;entryY=0;entryDx=0;entryDy=0;" parent="WIyWlLk6GJQsqaUBKTNV-1" source="ab9UltgPTbyfIHj8jIaH-3" target="ab9UltgPTbyfIHj8jIaH-26" edge="1">
          <mxGeometry relative="1" as="geometry" />
        </mxCell>
        <mxCell id="Y3jKgYXB_ApYThglsX_Y-41" style="edgeStyle=orthogonalEdgeStyle;rounded=0;orthogonalLoop=1;jettySize=auto;html=1;exitX=0.25;exitY=0;exitDx=0;exitDy=0;entryX=0.5;entryY=0;entryDx=0;entryDy=0;" parent="WIyWlLk6GJQsqaUBKTNV-1" source="ab9UltgPTbyfIHj8jIaH-3" target="ab9UltgPTbyfIHj8jIaH-21" edge="1">
          <mxGeometry relative="1" as="geometry" />
        </mxCell>
        <mxCell id="Y3jKgYXB_ApYThglsX_Y-42" style="edgeStyle=orthogonalEdgeStyle;rounded=0;orthogonalLoop=1;jettySize=auto;html=1;exitX=0.25;exitY=0;exitDx=0;exitDy=0;entryX=0.5;entryY=0;entryDx=0;entryDy=0;" parent="WIyWlLk6GJQsqaUBKTNV-1" source="ab9UltgPTbyfIHj8jIaH-3" target="ab9UltgPTbyfIHj8jIaH-13" edge="1">
          <mxGeometry relative="1" as="geometry" />
        </mxCell>
        <mxCell id="Y3jKgYXB_ApYThglsX_Y-43" style="edgeStyle=orthogonalEdgeStyle;rounded=0;orthogonalLoop=1;jettySize=auto;html=1;exitX=0.25;exitY=0;exitDx=0;exitDy=0;entryX=0.5;entryY=0;entryDx=0;entryDy=0;" parent="WIyWlLk6GJQsqaUBKTNV-1" source="ab9UltgPTbyfIHj8jIaH-3" target="Y3jKgYXB_ApYThglsX_Y-5" edge="1">
          <mxGeometry relative="1" as="geometry" />
        </mxCell>
        <mxCell id="Y3jKgYXB_ApYThglsX_Y-44" style="edgeStyle=orthogonalEdgeStyle;rounded=0;orthogonalLoop=1;jettySize=auto;html=1;exitX=0.25;exitY=0;exitDx=0;exitDy=0;entryX=0.5;entryY=0;entryDx=0;entryDy=0;" parent="WIyWlLk6GJQsqaUBKTNV-1" source="ab9UltgPTbyfIHj8jIaH-3" target="ab9UltgPTbyfIHj8jIaH-93" edge="1">
          <mxGeometry relative="1" as="geometry" />
        </mxCell>
        <mxCell id="Y3jKgYXB_ApYThglsX_Y-45" style="edgeStyle=orthogonalEdgeStyle;rounded=0;orthogonalLoop=1;jettySize=auto;html=1;exitX=0.25;exitY=0;exitDx=0;exitDy=0;entryX=0.5;entryY=0;entryDx=0;entryDy=0;" parent="WIyWlLk6GJQsqaUBKTNV-1" source="ab9UltgPTbyfIHj8jIaH-3" target="ab9UltgPTbyfIHj8jIaH-97" edge="1">
          <mxGeometry relative="1" as="geometry" />
        </mxCell>
        <mxCell id="Y3jKgYXB_ApYThglsX_Y-46" style="edgeStyle=orthogonalEdgeStyle;rounded=0;orthogonalLoop=1;jettySize=auto;html=1;exitX=0.25;exitY=0;exitDx=0;exitDy=0;entryX=0.5;entryY=0;entryDx=0;entryDy=0;" parent="WIyWlLk6GJQsqaUBKTNV-1" source="ab9UltgPTbyfIHj8jIaH-3" target="ab9UltgPTbyfIHj8jIaH-113" edge="1">
          <mxGeometry relative="1" as="geometry">
            <Array as="points">
              <mxPoint x="-1775" y="-743" />
              <mxPoint x="-2240" y="-743" />
              <mxPoint x="-2240" y="-680" />
              <mxPoint x="-2380" y="-680" />
            </Array>
          </mxGeometry>
        </mxCell>
        <mxCell id="Y3jKgYXB_ApYThglsX_Y-47" style="edgeStyle=orthogonalEdgeStyle;rounded=0;orthogonalLoop=1;jettySize=auto;html=1;exitX=0.25;exitY=0;exitDx=0;exitDy=0;entryX=0.5;entryY=0;entryDx=0;entryDy=0;" parent="WIyWlLk6GJQsqaUBKTNV-1" source="ab9UltgPTbyfIHj8jIaH-3" target="ab9UltgPTbyfIHj8jIaH-58" edge="1">
          <mxGeometry relative="1" as="geometry">
            <Array as="points">
              <mxPoint x="-1775" y="-743" />
              <mxPoint x="-2240" y="-743" />
              <mxPoint x="-2240" y="-550" />
              <mxPoint x="-2380" y="-550" />
            </Array>
          </mxGeometry>
        </mxCell>
        <mxCell id="Y3jKgYXB_ApYThglsX_Y-48" style="edgeStyle=orthogonalEdgeStyle;rounded=0;orthogonalLoop=1;jettySize=auto;html=1;exitX=0.25;exitY=0;exitDx=0;exitDy=0;entryX=0.5;entryY=0;entryDx=0;entryDy=0;" parent="WIyWlLk6GJQsqaUBKTNV-1" source="ab9UltgPTbyfIHj8jIaH-3" target="ab9UltgPTbyfIHj8jIaH-77" edge="1">
          <mxGeometry relative="1" as="geometry">
            <Array as="points">
              <mxPoint x="-1775" y="-740" />
              <mxPoint x="-2240" y="-740" />
              <mxPoint x="-2240" y="-390" />
            </Array>
          </mxGeometry>
        </mxCell>
        <mxCell id="Y3jKgYXB_ApYThglsX_Y-49" style="edgeStyle=orthogonalEdgeStyle;rounded=0;orthogonalLoop=1;jettySize=auto;html=1;exitX=0.25;exitY=0;exitDx=0;exitDy=0;entryX=0.5;entryY=0;entryDx=0;entryDy=0;" parent="WIyWlLk6GJQsqaUBKTNV-1" source="ab9UltgPTbyfIHj8jIaH-3" target="Y3jKgYXB_ApYThglsX_Y-1" edge="1">
          <mxGeometry relative="1" as="geometry">
            <Array as="points">
              <mxPoint x="-1775" y="-740" />
              <mxPoint x="-2240" y="-740" />
              <mxPoint x="-2240" y="-280" />
            </Array>
          </mxGeometry>
        </mxCell>
        <mxCell id="Y3jKgYXB_ApYThglsX_Y-50" style="edgeStyle=orthogonalEdgeStyle;rounded=0;orthogonalLoop=1;jettySize=auto;html=1;exitX=0.25;exitY=0;exitDx=0;exitDy=0;entryX=0.5;entryY=0;entryDx=0;entryDy=0;" parent="WIyWlLk6GJQsqaUBKTNV-1" source="ab9UltgPTbyfIHj8jIaH-3" target="ab9UltgPTbyfIHj8jIaH-122" edge="1">
          <mxGeometry relative="1" as="geometry">
            <Array as="points">
              <mxPoint x="-1775" y="-740" />
              <mxPoint x="-2240" y="-740" />
              <mxPoint x="-2240" y="-150" />
            </Array>
          </mxGeometry>
        </mxCell>
        <mxCell id="Y3jKgYXB_ApYThglsX_Y-51" style="edgeStyle=orthogonalEdgeStyle;rounded=0;orthogonalLoop=1;jettySize=auto;html=1;exitX=0.25;exitY=0;exitDx=0;exitDy=0;entryX=0.5;entryY=0;entryDx=0;entryDy=0;" parent="WIyWlLk6GJQsqaUBKTNV-1" source="ab9UltgPTbyfIHj8jIaH-3" target="ab9UltgPTbyfIHj8jIaH-112" edge="1">
          <mxGeometry relative="1" as="geometry">
            <Array as="points">
              <mxPoint x="-1775" y="-740" />
              <mxPoint x="-2240" y="-740" />
              <mxPoint x="-2240" />
            </Array>
          </mxGeometry>
        </mxCell>
        <mxCell id="Y3jKgYXB_ApYThglsX_Y-52" style="edgeStyle=orthogonalEdgeStyle;rounded=0;orthogonalLoop=1;jettySize=auto;html=1;exitX=0.75;exitY=0;exitDx=0;exitDy=0;entryX=0.5;entryY=0;entryDx=0;entryDy=0;" parent="WIyWlLk6GJQsqaUBKTNV-1" source="ab9UltgPTbyfIHj8jIaH-3" target="Y3jKgYXB_ApYThglsX_Y-3" edge="1">
          <mxGeometry relative="1" as="geometry" />
        </mxCell>
        <mxCell id="Y3jKgYXB_ApYThglsX_Y-53" style="edgeStyle=orthogonalEdgeStyle;rounded=0;orthogonalLoop=1;jettySize=auto;html=1;exitX=0.75;exitY=0;exitDx=0;exitDy=0;entryX=0.5;entryY=0;entryDx=0;entryDy=0;" parent="WIyWlLk6GJQsqaUBKTNV-1" source="ab9UltgPTbyfIHj8jIaH-3" target="ab9UltgPTbyfIHj8jIaH-124" edge="1">
          <mxGeometry relative="1" as="geometry" />
        </mxCell>
        <mxCell id="Y3jKgYXB_ApYThglsX_Y-54" style="edgeStyle=orthogonalEdgeStyle;rounded=0;orthogonalLoop=1;jettySize=auto;html=1;exitX=0.75;exitY=0;exitDx=0;exitDy=0;entryX=0.5;entryY=0;entryDx=0;entryDy=0;" parent="WIyWlLk6GJQsqaUBKTNV-1" source="ab9UltgPTbyfIHj8jIaH-3" target="Y3jKgYXB_ApYThglsX_Y-6" edge="1">
          <mxGeometry relative="1" as="geometry">
            <Array as="points">
              <mxPoint x="-1705" y="-740" />
              <mxPoint x="-1420" y="-740" />
              <mxPoint x="-1420" y="-518" />
            </Array>
          </mxGeometry>
        </mxCell>
        <mxCell id="Y3jKgYXB_ApYThglsX_Y-55" style="edgeStyle=orthogonalEdgeStyle;rounded=0;orthogonalLoop=1;jettySize=auto;html=1;exitX=0.75;exitY=0;exitDx=0;exitDy=0;entryX=0.5;entryY=0;entryDx=0;entryDy=0;" parent="WIyWlLk6GJQsqaUBKTNV-1" source="ab9UltgPTbyfIHj8jIaH-3" target="ab9UltgPTbyfIHj8jIaH-15" edge="1">
          <mxGeometry relative="1" as="geometry">
            <Array as="points">
              <mxPoint x="-1705" y="-740" />
              <mxPoint x="-1420" y="-740" />
              <mxPoint x="-1420" y="-610" />
              <mxPoint x="-1500" y="-610" />
            </Array>
          </mxGeometry>
        </mxCell>
        <mxCell id="Y3jKgYXB_ApYThglsX_Y-56" style="edgeStyle=orthogonalEdgeStyle;rounded=0;orthogonalLoop=1;jettySize=auto;html=1;exitX=0.75;exitY=0;exitDx=0;exitDy=0;entryX=0.5;entryY=0;entryDx=0;entryDy=0;" parent="WIyWlLk6GJQsqaUBKTNV-1" source="ab9UltgPTbyfIHj8jIaH-3" target="ab9UltgPTbyfIHj8jIaH-27" edge="1">
          <mxGeometry relative="1" as="geometry">
            <Array as="points">
              <mxPoint x="-1705" y="-740" />
              <mxPoint x="-1420" y="-740" />
              <mxPoint x="-1420" y="-480" />
              <mxPoint x="-1500" y="-480" />
            </Array>
          </mxGeometry>
        </mxCell>
        <mxCell id="Y3jKgYXB_ApYThglsX_Y-57" style="edgeStyle=orthogonalEdgeStyle;rounded=0;orthogonalLoop=1;jettySize=auto;html=1;exitX=0.75;exitY=0;exitDx=0;exitDy=0;entryX=0.5;entryY=0;entryDx=0;entryDy=0;" parent="WIyWlLk6GJQsqaUBKTNV-1" source="ab9UltgPTbyfIHj8jIaH-3" target="ab9UltgPTbyfIHj8jIaH-120" edge="1">
          <mxGeometry relative="1" as="geometry">
            <Array as="points">
              <mxPoint x="-1705" y="-740" />
              <mxPoint x="-1420" y="-740" />
              <mxPoint x="-1420" y="-350" />
              <mxPoint x="-1490" y="-350" />
            </Array>
          </mxGeometry>
        </mxCell>
        <mxCell id="Y3jKgYXB_ApYThglsX_Y-58" style="edgeStyle=orthogonalEdgeStyle;rounded=0;orthogonalLoop=1;jettySize=auto;html=1;exitX=0.75;exitY=0;exitDx=0;exitDy=0;entryX=0.5;entryY=0;entryDx=0;entryDy=0;" parent="WIyWlLk6GJQsqaUBKTNV-1" source="ab9UltgPTbyfIHj8jIaH-3" target="ab9UltgPTbyfIHj8jIaH-115" edge="1">
          <mxGeometry relative="1" as="geometry">
            <Array as="points">
              <mxPoint x="-1705" y="-740" />
              <mxPoint x="-1420" y="-740" />
              <mxPoint x="-1420" y="-210" />
              <mxPoint x="-1490" y="-210" />
            </Array>
          </mxGeometry>
        </mxCell>
        <mxCell id="Y3jKgYXB_ApYThglsX_Y-59" style="edgeStyle=orthogonalEdgeStyle;rounded=0;orthogonalLoop=1;jettySize=auto;html=1;exitX=0.5;exitY=1;exitDx=0;exitDy=0;entryX=0.5;entryY=0;entryDx=0;entryDy=0;" parent="WIyWlLk6GJQsqaUBKTNV-1" source="ab9UltgPTbyfIHj8jIaH-3" target="ab9UltgPTbyfIHj8jIaH-33" edge="1">
          <mxGeometry relative="1" as="geometry" />
        </mxCell>
        <mxCell id="Y3jKgYXB_ApYThglsX_Y-60" style="edgeStyle=orthogonalEdgeStyle;rounded=0;orthogonalLoop=1;jettySize=auto;html=1;exitX=0.5;exitY=1;exitDx=0;exitDy=0;entryX=0.5;entryY=0;entryDx=0;entryDy=0;" parent="WIyWlLk6GJQsqaUBKTNV-1" source="ab9UltgPTbyfIHj8jIaH-3" target="ab9UltgPTbyfIHj8jIaH-32" edge="1">
          <mxGeometry relative="1" as="geometry" />
        </mxCell>
        <mxCell id="Y3jKgYXB_ApYThglsX_Y-91" style="edgeStyle=orthogonalEdgeStyle;rounded=0;orthogonalLoop=1;jettySize=auto;html=1;exitX=0;exitY=0.5;exitDx=0;exitDy=0;entryX=0.5;entryY=0;entryDx=0;entryDy=0;" parent="WIyWlLk6GJQsqaUBKTNV-1" source="ab9UltgPTbyfIHj8jIaH-3" target="ab9UltgPTbyfIHj8jIaH-135" edge="1">
          <mxGeometry relative="1" as="geometry" />
        </mxCell>
        <mxCell id="ab9UltgPTbyfIHj8jIaH-3" value="Angela" style="html=1;overflow=block;blockSpacing=1;whiteSpace=wrap;fontSize=18.3;fontFamily=Helvetica;fontColor=#ffffff;spacing=3.8;strokeOpacity=0;fillOpacity=100;rounded=1;absoluteArcSize=1;arcSize=7.5;fillColor=#225798;strokeWidth=1.5;lucidId=0H17ufdto98P;" parent="WIyWlLk6GJQsqaUBKTNV-1" vertex="1">
          <mxGeometry x="-1810" y="-720" width="140" height="96" as="geometry" />
        </mxCell>
        <mxCell id="ab9UltgPTbyfIHj8jIaH-8" value="" style="group;dropTarget=0;pointerEvents=0;" parent="WIyWlLk6GJQsqaUBKTNV-1" vertex="1">
          <mxGeometry x="-1123" y="-1130" width="640" height="45" as="geometry" />
        </mxCell>
        <mxCell id="ab9UltgPTbyfIHj8jIaH-9" value="Diagrama de Flujo, creando una plantilla para Diplomados" style="points=[[0.135,0.967,0],[0.876,0.967,0]];html=1;overflow=block;blockSpacing=1;whiteSpace=wrap;fontSize=19.7;fontColor=#a9afb8;fontStyle=1;align=center;spacingLeft=7;spacingRight=7;spacingTop=2;spacing=3;strokeOpacity=0;fillOpacity=0;rounded=1;absoluteArcSize=1;arcSize=12;fillColor=#ffffff;strokeWidth=1.5;lucidId=0H17IlgR~u2n;" parent="ab9UltgPTbyfIHj8jIaH-8" vertex="1">
          <mxGeometry width="640" height="31" as="geometry" />
        </mxCell>
        <UserObject label="NicolÃ¡s GrandÃ³n |  %date{mmmm d, yyyy}%" placeholders="1" id="ab9UltgPTbyfIHj8jIaH-10">
          <mxCell style="html=1;overflow=block;blockSpacing=1;whiteSpace=wrap;fontSize=11.5;fontColor=#a9afb8;align=center;spacingLeft=7;spacingRight=7;spacingTop=2;spacing=3;strokeOpacity=0;fillOpacity=0;rounded=1;absoluteArcSize=1;arcSize=12;fillColor=#ffffff;strokeWidth=1.5;lucidId=0H175LkxLOi7;" parent="ab9UltgPTbyfIHj8jIaH-8" vertex="1">
            <mxGeometry y="31" width="640" height="14" as="geometry" />
          </mxCell>
        </UserObject>
        <mxCell id="ab9UltgPTbyfIHj8jIaH-11" value="" style="html=1;jettySize=18;whiteSpace=wrap;fontSize=13;fontFamily=Helvetica;strokeColor=#a9afb8;strokeOpacity=100;strokeWidth=1.5;rounded=0;startArrow=none;endArrow=none;exitX=0.135;exitY=0.967;exitPerimeter=0;entryX=0.876;entryY=0.967;entryPerimeter=0;lucidId=0H17hrXGbce9;" parent="ab9UltgPTbyfIHj8jIaH-8" source="ab9UltgPTbyfIHj8jIaH-9" target="ab9UltgPTbyfIHj8jIaH-9" edge="1">
          <mxGeometry width="100" height="100" relative="1" as="geometry">
            <Array as="points">
              <mxPoint x="86" y="50" generated="1" />
              <mxPoint x="561" y="50" generated="1" />
            </Array>
          </mxGeometry>
        </mxCell>
        <mxCell id="Y3jKgYXB_ApYThglsX_Y-90" style="edgeStyle=orthogonalEdgeStyle;rounded=0;orthogonalLoop=1;jettySize=auto;html=1;exitX=0.5;exitY=1;exitDx=0;exitDy=0;entryX=0;entryY=0.5;entryDx=0;entryDy=0;" parent="WIyWlLk6GJQsqaUBKTNV-1" source="ab9UltgPTbyfIHj8jIaH-13" target="ab9UltgPTbyfIHj8jIaH-84" edge="1">
          <mxGeometry relative="1" as="geometry">
            <Array as="points">
              <mxPoint x="-2460" y="-820" />
              <mxPoint x="-2460" y="208" />
            </Array>
          </mxGeometry>
        </mxCell>
        <mxCell id="ab9UltgPTbyfIHj8jIaH-13" value="Nombre Diplomado* ok" style="html=1;overflow=block;blockSpacing=1;whiteSpace=wrap;fontSize=16.7;align=center;spacing=9;strokeOpacity=0;fillOpacity=100;rounded=1;absoluteArcSize=1;arcSize=7.5;fillColor=#d7e9ff;strokeWidth=1.5;lucidId=s_17A-~ckM8k;" parent="WIyWlLk6GJQsqaUBKTNV-1" vertex="1">
          <mxGeometry x="-2000" y="-910" width="120" height="90" as="geometry" />
        </mxCell>
        <mxCell id="Y3jKgYXB_ApYThglsX_Y-74" style="edgeStyle=orthogonalEdgeStyle;rounded=0;orthogonalLoop=1;jettySize=auto;html=1;exitX=0;exitY=0.5;exitDx=0;exitDy=0;entryX=0;entryY=0.5;entryDx=0;entryDy=0;" parent="WIyWlLk6GJQsqaUBKTNV-1" source="ab9UltgPTbyfIHj8jIaH-15" target="ab9UltgPTbyfIHj8jIaH-96" edge="1">
          <mxGeometry relative="1" as="geometry" />
        </mxCell>
        <mxCell id="ab9UltgPTbyfIHj8jIaH-15" value="Tipo Diplomado ok" style="html=1;overflow=block;blockSpacing=1;whiteSpace=wrap;fontSize=16.7;align=center;spacing=9;strokeOpacity=0;fillOpacity=100;rounded=1;absoluteArcSize=1;arcSize=7.5;fillColor=#d7e9ff;strokeWidth=1.5;lucidId=1.17IZkgmfNq;" parent="WIyWlLk6GJQsqaUBKTNV-1" vertex="1">
          <mxGeometry x="-1560" y="-596" width="120" height="90" as="geometry" />
        </mxCell>
        <mxCell id="ab9UltgPTbyfIHj8jIaH-17" value="AÃ±o y Semestre diplomado*" style="html=1;overflow=block;blockSpacing=1;whiteSpace=wrap;fontSize=16.7;align=center;spacing=9;strokeOpacity=0;fillOpacity=100;rounded=1;absoluteArcSize=1;arcSize=7.5;fillColor=#d7e9ff;strokeWidth=1.5;lucidId=1.17IZkgmfNq;" parent="WIyWlLk6GJQsqaUBKTNV-1" vertex="1">
          <mxGeometry x="-1160" y="-240" width="120" height="90" as="geometry" />
        </mxCell>
        <mxCell id="ab9UltgPTbyfIHj8jIaH-21" value="Fecha de Inicio* ok" style="html=1;overflow=block;blockSpacing=1;whiteSpace=wrap;fontSize=16.7;align=center;spacing=9;strokeOpacity=0;fillOpacity=100;rounded=1;absoluteArcSize=1;arcSize=7.5;fillColor=#d7e9ff;strokeWidth=1.5;lucidId=1.17IZkgmfNq;" parent="WIyWlLk6GJQsqaUBKTNV-1" vertex="1">
          <mxGeometry x="-2240" y="-1050" width="120" height="90" as="geometry" />
        </mxCell>
        <mxCell id="Y3jKgYXB_ApYThglsX_Y-76" style="edgeStyle=orthogonalEdgeStyle;rounded=0;orthogonalLoop=1;jettySize=auto;html=1;exitX=0.5;exitY=1;exitDx=0;exitDy=0;entryX=0;entryY=0.5;entryDx=0;entryDy=0;" parent="WIyWlLk6GJQsqaUBKTNV-1" source="ab9UltgPTbyfIHj8jIaH-26" target="ab9UltgPTbyfIHj8jIaH-84" edge="1">
          <mxGeometry relative="1" as="geometry">
            <Array as="points">
              <mxPoint x="-2460" y="-960" />
              <mxPoint x="-2460" y="208" />
            </Array>
          </mxGeometry>
        </mxCell>
        <mxCell id="ab9UltgPTbyfIHj8jIaH-26" value="Fecha de Termino ok" style="html=1;overflow=block;blockSpacing=1;whiteSpace=wrap;fontSize=16.7;align=center;spacing=9;strokeOpacity=0;fillOpacity=100;rounded=1;absoluteArcSize=1;arcSize=7.5;fillColor=#d7e9ff;strokeWidth=1.5;lucidId=1.17IZkgmfNq;" parent="WIyWlLk6GJQsqaUBKTNV-1" vertex="1">
          <mxGeometry x="-2080" y="-1050" width="120" height="90" as="geometry" />
        </mxCell>
        <mxCell id="Y3jKgYXB_ApYThglsX_Y-73" style="edgeStyle=orthogonalEdgeStyle;rounded=0;orthogonalLoop=1;jettySize=auto;html=1;exitX=0;exitY=0.5;exitDx=0;exitDy=0;entryX=0;entryY=0.5;entryDx=0;entryDy=0;" parent="WIyWlLk6GJQsqaUBKTNV-1" source="ab9UltgPTbyfIHj8jIaH-27" target="ab9UltgPTbyfIHj8jIaH-96" edge="1">
          <mxGeometry relative="1" as="geometry" />
        </mxCell>
        <mxCell id="ab9UltgPTbyfIHj8jIaH-27" value="Area Negocios Diplomado* ok" style="html=1;overflow=block;blockSpacing=1;whiteSpace=wrap;fontSize=16.7;align=center;spacing=9;strokeOpacity=0;fillOpacity=100;rounded=1;absoluteArcSize=1;arcSize=7.5;fillColor=#d7e9ff;strokeWidth=1.5;lucidId=1.17IZkgmfNq;" parent="WIyWlLk6GJQsqaUBKTNV-1" vertex="1">
          <mxGeometry x="-1560" y="-456" width="120" height="90" as="geometry" />
        </mxCell>
        <mxCell id="ab9UltgPTbyfIHj8jIaH-32" value="BotÃ³n para subir/cargar Diplomado ok" style="html=1;overflow=block;blockSpacing=1;whiteSpace=wrap;fontSize=16.7;align=center;spacing=9;strokeOpacity=0;fillOpacity=100;rounded=1;absoluteArcSize=1;arcSize=7.5;fillColor=#d7e9ff;strokeWidth=1.5;lucidId=1.17IZkgmfNq;" parent="WIyWlLk6GJQsqaUBKTNV-1" vertex="1">
          <mxGeometry x="-1960" y="-520" width="120" height="90" as="geometry" />
        </mxCell>
        <mxCell id="ab9UltgPTbyfIHj8jIaH-33" value="BotÃ³n para borrar Diplomado ok&lt;br&gt;" style="html=1;overflow=block;blockSpacing=1;whiteSpace=wrap;fontSize=16.7;align=center;spacing=9;strokeOpacity=0;fillOpacity=100;rounded=1;absoluteArcSize=1;arcSize=7.5;fillColor=#d7e9ff;strokeWidth=1.5;lucidId=1.17IZkgmfNq;" parent="WIyWlLk6GJQsqaUBKTNV-1" vertex="1">
          <mxGeometry x="-1800" y="-520" width="120" height="90" as="geometry" />
        </mxCell>
        <mxCell id="Y3jKgYXB_ApYThglsX_Y-86" style="edgeStyle=orthogonalEdgeStyle;rounded=0;orthogonalLoop=1;jettySize=auto;html=1;exitX=0;exitY=0.5;exitDx=0;exitDy=0;entryX=0;entryY=0.5;entryDx=0;entryDy=0;" parent="WIyWlLk6GJQsqaUBKTNV-1" source="ab9UltgPTbyfIHj8jIaH-58" target="ab9UltgPTbyfIHj8jIaH-84" edge="1">
          <mxGeometry relative="1" as="geometry" />
        </mxCell>
        <mxCell id="ab9UltgPTbyfIHj8jIaH-58" value="Nombre Secretaria* ok" style="html=1;overflow=block;blockSpacing=1;whiteSpace=wrap;fontSize=16.7;align=center;spacing=9;strokeOpacity=0;fillOpacity=100;rounded=1;absoluteArcSize=1;arcSize=7.5;fillColor=#d7e9ff;strokeWidth=1.5;lucidId=1.17IZkgmfNq;" parent="WIyWlLk6GJQsqaUBKTNV-1" vertex="1">
          <mxGeometry x="-2440" y="-520" width="120" height="90" as="geometry" />
        </mxCell>
        <mxCell id="Y3jKgYXB_ApYThglsX_Y-85" style="edgeStyle=orthogonalEdgeStyle;rounded=0;orthogonalLoop=1;jettySize=auto;html=1;exitX=0;exitY=0.5;exitDx=0;exitDy=0;entryX=0;entryY=0.5;entryDx=0;entryDy=0;" parent="WIyWlLk6GJQsqaUBKTNV-1" source="ab9UltgPTbyfIHj8jIaH-77" target="ab9UltgPTbyfIHj8jIaH-84" edge="1">
          <mxGeometry relative="1" as="geometry" />
        </mxCell>
        <mxCell id="ab9UltgPTbyfIHj8jIaH-77" value="Profesor del Diplomado* ok" style="html=1;overflow=block;blockSpacing=1;whiteSpace=wrap;fontSize=16.7;align=center;spacing=9;strokeOpacity=0;fillOpacity=100;rounded=1;absoluteArcSize=1;arcSize=7.5;fillColor=#d7e9ff;strokeWidth=1.5;lucidId=1.17IZkgmfNq;" parent="WIyWlLk6GJQsqaUBKTNV-1" vertex="1">
          <mxGeometry x="-2440" y="-390" width="120" height="90" as="geometry" />
        </mxCell>
        <mxCell id="ab9UltgPTbyfIHj8jIaH-84" value="Campos Rellenables" style="html=1;overflow=block;blockSpacing=1;whiteSpace=wrap;fontSize=18.3;fontFamily=Helvetica;fontColor=#ffffff;spacing=3.8;strokeOpacity=0;fillOpacity=100;rounded=1;absoluteArcSize=1;arcSize=7.5;fillColor=#225798;strokeWidth=1.5;lucidId=0H17ufdto98P;" parent="WIyWlLk6GJQsqaUBKTNV-1" vertex="1">
          <mxGeometry x="-2440" y="160" width="142" height="96" as="geometry" />
        </mxCell>
        <mxCell id="Y3jKgYXB_ApYThglsX_Y-61" style="edgeStyle=orthogonalEdgeStyle;rounded=0;orthogonalLoop=1;jettySize=auto;html=1;entryX=0.5;entryY=1;entryDx=0;entryDy=0;" parent="WIyWlLk6GJQsqaUBKTNV-1" source="ab9UltgPTbyfIHj8jIaH-88" target="ab9UltgPTbyfIHj8jIaH-32" edge="1">
          <mxGeometry relative="1" as="geometry" />
        </mxCell>
        <mxCell id="Y3jKgYXB_ApYThglsX_Y-62" style="edgeStyle=orthogonalEdgeStyle;rounded=0;orthogonalLoop=1;jettySize=auto;html=1;exitX=0.5;exitY=0;exitDx=0;exitDy=0;entryX=0.5;entryY=1;entryDx=0;entryDy=0;" parent="WIyWlLk6GJQsqaUBKTNV-1" source="ab9UltgPTbyfIHj8jIaH-88" target="ab9UltgPTbyfIHj8jIaH-33" edge="1">
          <mxGeometry relative="1" as="geometry" />
        </mxCell>
        <mxCell id="ab9UltgPTbyfIHj8jIaH-88" value="Botones" style="html=1;overflow=block;blockSpacing=1;whiteSpace=wrap;fontSize=18.3;fontFamily=Helvetica;fontColor=#ffffff;spacing=3.8;strokeOpacity=0;fillOpacity=100;rounded=1;absoluteArcSize=1;arcSize=7.5;fillColor=#225798;strokeWidth=1.5;lucidId=0H17ufdto98P;" parent="WIyWlLk6GJQsqaUBKTNV-1" vertex="1">
          <mxGeometry x="-1890" y="-286" width="142" height="96" as="geometry" />
        </mxCell>
        <mxCell id="ab9UltgPTbyfIHj8jIaH-93" value="Vacantes&lt;br&gt;(35) ok" style="html=1;overflow=block;blockSpacing=1;whiteSpace=wrap;fontSize=16.7;align=center;spacing=9;strokeOpacity=0;fillOpacity=100;rounded=1;absoluteArcSize=1;arcSize=7.5;fillColor=#d7e9ff;strokeWidth=1.5;lucidId=s_17A-~ckM8k;" parent="WIyWlLk6GJQsqaUBKTNV-1" vertex="1">
          <mxGeometry x="-2320" y="-910" width="120" height="90" as="geometry" />
        </mxCell>
        <mxCell id="ab9UltgPTbyfIHj8jIaH-96" value="Campos listados" style="html=1;overflow=block;blockSpacing=1;whiteSpace=wrap;fontSize=18.3;fontFamily=Helvetica;fontColor=#ffffff;spacing=3.8;strokeOpacity=0;fillOpacity=100;rounded=1;absoluteArcSize=1;arcSize=7.5;fillColor=#225798;strokeWidth=1.5;lucidId=0H17ufdto98P;" parent="WIyWlLk6GJQsqaUBKTNV-1" vertex="1">
          <mxGeometry x="-1560" y="-6" width="142" height="96" as="geometry" />
        </mxCell>
        <mxCell id="Y3jKgYXB_ApYThglsX_Y-88" style="edgeStyle=orthogonalEdgeStyle;rounded=0;orthogonalLoop=1;jettySize=auto;html=1;exitX=0;exitY=0.5;exitDx=0;exitDy=0;entryX=0;entryY=0.5;entryDx=0;entryDy=0;" parent="WIyWlLk6GJQsqaUBKTNV-1" source="ab9UltgPTbyfIHj8jIaH-97" target="ab9UltgPTbyfIHj8jIaH-84" edge="1">
          <mxGeometry relative="1" as="geometry" />
        </mxCell>
        <mxCell id="ab9UltgPTbyfIHj8jIaH-97" value="Horas&amp;nbsp; ok" style="html=1;overflow=block;blockSpacing=1;whiteSpace=wrap;fontSize=16.7;align=center;spacing=9;strokeOpacity=0;fillOpacity=100;rounded=1;absoluteArcSize=1;arcSize=7.5;fillColor=#d7e9ff;strokeWidth=1.5;lucidId=s_17A-~ckM8k;" parent="WIyWlLk6GJQsqaUBKTNV-1" vertex="1">
          <mxGeometry x="-2440" y="-790" width="120" height="90" as="geometry" />
        </mxCell>
        <mxCell id="Y3jKgYXB_ApYThglsX_Y-80" style="edgeStyle=orthogonalEdgeStyle;rounded=0;orthogonalLoop=1;jettySize=auto;html=1;exitX=0.5;exitY=1;exitDx=0;exitDy=0;entryX=0;entryY=0.5;entryDx=0;entryDy=0;" parent="WIyWlLk6GJQsqaUBKTNV-1" source="ab9UltgPTbyfIHj8jIaH-111" target="ab9UltgPTbyfIHj8jIaH-84" edge="1">
          <mxGeometry relative="1" as="geometry">
            <Array as="points">
              <mxPoint x="-2460" y="-960" />
              <mxPoint x="-2460" y="208" />
            </Array>
          </mxGeometry>
        </mxCell>
        <mxCell id="ab9UltgPTbyfIHj8jIaH-111" value="Hora de Inicio ok" style="html=1;overflow=block;blockSpacing=1;whiteSpace=wrap;fontSize=16.7;align=center;spacing=9;strokeOpacity=0;fillOpacity=100;rounded=1;absoluteArcSize=1;arcSize=7.5;fillColor=#d7e9ff;strokeWidth=1.5;lucidId=1.17IZkgmfNq;" parent="WIyWlLk6GJQsqaUBKTNV-1" vertex="1">
          <mxGeometry x="-1920" y="-1050" width="120" height="90" as="geometry" />
        </mxCell>
        <mxCell id="Y3jKgYXB_ApYThglsX_Y-82" style="edgeStyle=orthogonalEdgeStyle;rounded=0;orthogonalLoop=1;jettySize=auto;html=1;exitX=0;exitY=0.5;exitDx=0;exitDy=0;entryX=0;entryY=0.5;entryDx=0;entryDy=0;" parent="WIyWlLk6GJQsqaUBKTNV-1" source="ab9UltgPTbyfIHj8jIaH-112" target="ab9UltgPTbyfIHj8jIaH-84" edge="1">
          <mxGeometry relative="1" as="geometry" />
        </mxCell>
        <mxCell id="ab9UltgPTbyfIHj8jIaH-112" value="Hora de Termino ok" style="html=1;overflow=block;blockSpacing=1;whiteSpace=wrap;fontSize=16.7;align=center;spacing=9;strokeOpacity=0;fillOpacity=100;rounded=1;absoluteArcSize=1;arcSize=7.5;fillColor=#d7e9ff;strokeWidth=1.5;lucidId=1.17IZkgmfNq;" parent="WIyWlLk6GJQsqaUBKTNV-1" vertex="1">
          <mxGeometry x="-2440" width="120" height="90" as="geometry" />
        </mxCell>
        <mxCell id="Y3jKgYXB_ApYThglsX_Y-87" style="edgeStyle=orthogonalEdgeStyle;rounded=0;orthogonalLoop=1;jettySize=auto;html=1;exitX=0;exitY=0.5;exitDx=0;exitDy=0;entryX=0;entryY=0.5;entryDx=0;entryDy=0;" parent="WIyWlLk6GJQsqaUBKTNV-1" source="ab9UltgPTbyfIHj8jIaH-113" target="ab9UltgPTbyfIHj8jIaH-84" edge="1">
          <mxGeometry relative="1" as="geometry" />
        </mxCell>
        <mxCell id="ab9UltgPTbyfIHj8jIaH-113" value="Horario Web* ok" style="html=1;overflow=block;blockSpacing=1;whiteSpace=wrap;fontSize=16.7;align=center;spacing=9;strokeOpacity=0;fillOpacity=100;rounded=1;absoluteArcSize=1;arcSize=7.5;fillColor=#d7e9ff;strokeWidth=1.5;lucidId=1.17IZkgmfNq;" parent="WIyWlLk6GJQsqaUBKTNV-1" vertex="1">
          <mxGeometry x="-2440" y="-647" width="120" height="90" as="geometry" />
        </mxCell>
        <mxCell id="Y3jKgYXB_ApYThglsX_Y-65" style="edgeStyle=orthogonalEdgeStyle;rounded=0;orthogonalLoop=1;jettySize=auto;html=1;exitX=0.5;exitY=1;exitDx=0;exitDy=0;entryX=0.5;entryY=0;entryDx=0;entryDy=0;" parent="WIyWlLk6GJQsqaUBKTNV-1" source="ab9UltgPTbyfIHj8jIaH-115" target="ab9UltgPTbyfIHj8jIaH-96" edge="1">
          <mxGeometry relative="1" as="geometry" />
        </mxCell>
        <mxCell id="Y3jKgYXB_ApYThglsX_Y-70" style="edgeStyle=orthogonalEdgeStyle;rounded=0;orthogonalLoop=1;jettySize=auto;html=1;exitX=0;exitY=0.5;exitDx=0;exitDy=0;entryX=0;entryY=0.5;entryDx=0;entryDy=0;" parent="WIyWlLk6GJQsqaUBKTNV-1" source="ab9UltgPTbyfIHj8jIaH-115" target="ab9UltgPTbyfIHj8jIaH-96" edge="1">
          <mxGeometry relative="1" as="geometry" />
        </mxCell>
        <mxCell id="ab9UltgPTbyfIHj8jIaH-115" value="Modalidad ok" style="html=1;overflow=block;blockSpacing=1;whiteSpace=wrap;fontSize=16.7;align=center;spacing=9;strokeOpacity=0;fillOpacity=100;rounded=1;absoluteArcSize=1;arcSize=7.5;fillColor=#d7e9ff;strokeWidth=1.5;lucidId=1.17IZkgmfNq;" parent="WIyWlLk6GJQsqaUBKTNV-1" vertex="1">
          <mxGeometry x="-1550" y="-196" width="120" height="90" as="geometry" />
        </mxCell>
        <mxCell id="Y3jKgYXB_ApYThglsX_Y-72" style="edgeStyle=orthogonalEdgeStyle;rounded=0;orthogonalLoop=1;jettySize=auto;html=1;exitX=0;exitY=0.5;exitDx=0;exitDy=0;entryX=0;entryY=0.5;entryDx=0;entryDy=0;" parent="WIyWlLk6GJQsqaUBKTNV-1" source="ab9UltgPTbyfIHj8jIaH-120" target="ab9UltgPTbyfIHj8jIaH-96" edge="1">
          <mxGeometry relative="1" as="geometry" />
        </mxCell>
        <mxCell id="ab9UltgPTbyfIHj8jIaH-120" value="Jornada ok" style="html=1;overflow=block;blockSpacing=1;whiteSpace=wrap;fontSize=16.7;align=center;spacing=9;strokeOpacity=0;fillOpacity=100;rounded=1;absoluteArcSize=1;arcSize=7.5;fillColor=#d7e9ff;strokeWidth=1.5;lucidId=1.17IZkgmfNq;" parent="WIyWlLk6GJQsqaUBKTNV-1" vertex="1">
          <mxGeometry x="-1550" y="-326" width="120" height="90" as="geometry" />
        </mxCell>
        <mxCell id="Y3jKgYXB_ApYThglsX_Y-83" style="edgeStyle=orthogonalEdgeStyle;rounded=0;orthogonalLoop=1;jettySize=auto;html=1;exitX=0;exitY=0.5;exitDx=0;exitDy=0;entryX=0;entryY=0.5;entryDx=0;entryDy=0;" parent="WIyWlLk6GJQsqaUBKTNV-1" source="ab9UltgPTbyfIHj8jIaH-122" target="ab9UltgPTbyfIHj8jIaH-84" edge="1">
          <mxGeometry relative="1" as="geometry" />
        </mxCell>
        <mxCell id="ab9UltgPTbyfIHj8jIaH-122" value="Valor Diplomado&lt;br&gt;ok" style="html=1;overflow=block;blockSpacing=1;whiteSpace=wrap;fontSize=16.7;align=center;spacing=9;strokeOpacity=0;fillOpacity=100;rounded=1;absoluteArcSize=1;arcSize=7.5;fillColor=#d7e9ff;strokeWidth=1.5;lucidId=1.17IZkgmfNq;" parent="WIyWlLk6GJQsqaUBKTNV-1" vertex="1">
          <mxGeometry x="-2440" y="-150" width="120" height="90" as="geometry" />
        </mxCell>
        <mxCell id="Y3jKgYXB_ApYThglsX_Y-63" style="edgeStyle=orthogonalEdgeStyle;rounded=0;orthogonalLoop=1;jettySize=auto;html=1;exitX=1;exitY=0.5;exitDx=0;exitDy=0;entryX=0.5;entryY=0;entryDx=0;entryDy=0;" parent="WIyWlLk6GJQsqaUBKTNV-1" source="ab9UltgPTbyfIHj8jIaH-124" target="ab9UltgPTbyfIHj8jIaH-96" edge="1">
          <mxGeometry relative="1" as="geometry">
            <Array as="points">
              <mxPoint x="-1260" y="-615" />
              <mxPoint x="-1260" y="-40" />
              <mxPoint x="-1489" y="-40" />
            </Array>
          </mxGeometry>
        </mxCell>
        <mxCell id="ab9UltgPTbyfIHj8jIaH-124" value="Area Negocios* ok" style="html=1;overflow=block;blockSpacing=1;whiteSpace=wrap;fontSize=16.7;align=center;spacing=9;strokeOpacity=0;fillOpacity=100;rounded=1;absoluteArcSize=1;arcSize=7.5;fillColor=#d7e9ff;strokeWidth=1.5;lucidId=1.17IZkgmfNq;" parent="WIyWlLk6GJQsqaUBKTNV-1" vertex="1">
          <mxGeometry x="-1400" y="-660" width="120" height="90" as="geometry" />
        </mxCell>
        <mxCell id="ab9UltgPTbyfIHj8jIaH-126" value="" style="edgeStyle=orthogonalEdgeStyle;rounded=0;orthogonalLoop=1;jettySize=auto;html=1;" parent="WIyWlLk6GJQsqaUBKTNV-1" source="ab9UltgPTbyfIHj8jIaH-129" target="ab9UltgPTbyfIHj8jIaH-131" edge="1">
          <mxGeometry relative="1" as="geometry" />
        </mxCell>
        <mxCell id="ab9UltgPTbyfIHj8jIaH-127" value="B-Learning" style="edgeLabel;html=1;align=center;verticalAlign=middle;resizable=0;points=[];" parent="ab9UltgPTbyfIHj8jIaH-126" vertex="1" connectable="0">
          <mxGeometry x="-0.1833" y="4" relative="1" as="geometry">
            <mxPoint x="31" as="offset" />
          </mxGeometry>
        </mxCell>
        <mxCell id="ab9UltgPTbyfIHj8jIaH-128" value="Virtual" style="edgeStyle=orthogonalEdgeStyle;rounded=0;orthogonalLoop=1;jettySize=auto;html=1;" parent="WIyWlLk6GJQsqaUBKTNV-1" source="ab9UltgPTbyfIHj8jIaH-129" edge="1">
          <mxGeometry relative="1" as="geometry">
            <mxPoint x="-2150" y="210" as="targetPoint" />
          </mxGeometry>
        </mxCell>
        <mxCell id="ab9UltgPTbyfIHj8jIaH-129" value="Â¿Donde se realizarÃ¡ el Diplomado? ok" style="html=1;overflow=block;blockSpacing=1;whiteSpace=wrap;rhombus;fontSize=13.3;fontFamily=Helvetica;fontColor=#333333;spacing=3.3;strokeColor=#225798;strokeOpacity=100;rounded=1;absoluteArcSize=1;arcSize=7.5;strokeWidth=3;lucidId=0H17-tgMp_Wb;" parent="WIyWlLk6GJQsqaUBKTNV-1" vertex="1">
          <mxGeometry x="-2150" y="-60" width="160" height="140" as="geometry" />
        </mxCell>
        <mxCell id="ab9UltgPTbyfIHj8jIaH-130" value="" style="edgeStyle=orthogonalEdgeStyle;rounded=0;orthogonalLoop=1;jettySize=auto;html=1;" parent="WIyWlLk6GJQsqaUBKTNV-1" source="ab9UltgPTbyfIHj8jIaH-131" target="ab9UltgPTbyfIHj8jIaH-132" edge="1">
          <mxGeometry relative="1" as="geometry" />
        </mxCell>
        <mxCell id="ab9UltgPTbyfIHj8jIaH-131" value="Tiene 28 horas recomendadas" style="whiteSpace=wrap;html=1;fontSize=13.3;strokeColor=#225798;fontColor=#333333;spacing=3.3;rounded=1;arcSize=7.5;strokeWidth=3;" parent="WIyWlLk6GJQsqaUBKTNV-1" vertex="1">
          <mxGeometry x="-2055" y="210" width="120" height="60" as="geometry" />
        </mxCell>
        <mxCell id="ab9UltgPTbyfIHj8jIaH-132" value="Tiene Coffee Break" style="whiteSpace=wrap;html=1;fontSize=13.3;strokeColor=#225798;fontColor=#333333;spacing=3.3;rounded=1;arcSize=7.5;strokeWidth=3;" parent="WIyWlLk6GJQsqaUBKTNV-1" vertex="1">
          <mxGeometry x="-2055" y="300" width="120" height="60" as="geometry" />
        </mxCell>
        <mxCell id="ab9UltgPTbyfIHj8jIaH-133" value="No tiene Coffee Break" style="whiteSpace=wrap;html=1;fontSize=13.3;strokeColor=#225798;fontColor=#333333;spacing=3.3;rounded=1;arcSize=7.5;strokeWidth=3;" parent="WIyWlLk6GJQsqaUBKTNV-1" vertex="1">
          <mxGeometry x="-2200" y="210" width="120" height="60" as="geometry" />
        </mxCell>
        <mxCell id="ab9UltgPTbyfIHj8jIaH-135" value="Â¿Usara computadores? ok" style="html=1;overflow=block;blockSpacing=1;whiteSpace=wrap;rhombus;fontSize=13.3;fontFamily=Helvetica;fontColor=#333333;spacing=3.3;strokeColor=#225798;strokeOpacity=100;rounded=1;absoluteArcSize=1;arcSize=7.5;strokeWidth=3;lucidId=0H17-tgMp_Wb;" parent="WIyWlLk6GJQsqaUBKTNV-1" vertex="1">
          <mxGeometry x="-2150" y="-196" width="160" height="140" as="geometry" />
        </mxCell>
        <mxCell id="ab9UltgPTbyfIHj8jIaH-136" value="Â¿TendrÃ¡ NivelaciÃ³n? ok" style="html=1;overflow=block;blockSpacing=1;whiteSpace=wrap;rhombus;fontSize=13.3;fontFamily=Helvetica;fontColor=#333333;spacing=3.3;strokeColor=#225798;strokeOpacity=100;rounded=1;absoluteArcSize=1;arcSize=7.5;strokeWidth=3;lucidId=0H17-tgMp_Wb;" parent="WIyWlLk6GJQsqaUBKTNV-1" vertex="1">
          <mxGeometry x="-2230" y="-129" width="160" height="140" as="geometry" />
        </mxCell>
        <mxCell id="ab9UltgPTbyfIHj8jIaH-137" value="Â¿TendrÃ¡ IntroducciÃ³n? ok" style="html=1;overflow=block;blockSpacing=1;whiteSpace=wrap;rhombus;fontSize=13.3;fontFamily=Helvetica;fontColor=#333333;spacing=3.3;strokeColor=#225798;strokeOpacity=100;rounded=1;absoluteArcSize=1;arcSize=7.5;strokeWidth=3;lucidId=0H17-tgMp_Wb;" parent="WIyWlLk6GJQsqaUBKTNV-1" vertex="1">
          <mxGeometry x="-1990" y="-60" width="160" height="140" as="geometry" />
        </mxCell>
        <mxCell id="ab9UltgPTbyfIHj8jIaH-138" value="Â¿TendrÃ¡ Cierre? ok" style="html=1;overflow=block;blockSpacing=1;whiteSpace=wrap;rhombus;fontSize=13.3;fontFamily=Helvetica;fontColor=#333333;spacing=3.3;strokeColor=#225798;strokeOpacity=100;rounded=1;absoluteArcSize=1;arcSize=7.5;strokeWidth=3;lucidId=0H17-tgMp_Wb;" parent="WIyWlLk6GJQsqaUBKTNV-1" vertex="1">
          <mxGeometry x="-2070" y="-129" width="160" height="140" as="geometry" />
        </mxCell>
        <mxCell id="Y3jKgYXB_ApYThglsX_Y-92" style="edgeStyle=orthogonalEdgeStyle;rounded=0;orthogonalLoop=1;jettySize=auto;html=1;exitX=0.5;exitY=1;exitDx=0;exitDy=0;entryX=0;entryY=0.5;entryDx=0;entryDy=0;" parent="WIyWlLk6GJQsqaUBKTNV-1" source="ab9UltgPTbyfIHj8jIaH-139" target="ab9UltgPTbyfIHj8jIaH-96" edge="1">
          <mxGeometry relative="1" as="geometry" />
        </mxCell>
        <mxCell id="ab9UltgPTbyfIHj8jIaH-139" value="Â¿TendrÃ¡ Encuesta? ok" style="html=1;overflow=block;blockSpacing=1;whiteSpace=wrap;rhombus;fontSize=13.3;fontFamily=Helvetica;fontColor=#333333;spacing=3.3;strokeColor=#225798;strokeOpacity=100;rounded=1;absoluteArcSize=1;arcSize=7.5;strokeWidth=3;lucidId=0H17-tgMp_Wb;" parent="WIyWlLk6GJQsqaUBKTNV-1" vertex="1">
          <mxGeometry x="-1910" y="-129" width="160" height="140" as="geometry" />
        </mxCell>
        <mxCell id="Y3jKgYXB_ApYThglsX_Y-84" style="edgeStyle=orthogonalEdgeStyle;rounded=0;orthogonalLoop=1;jettySize=auto;html=1;exitX=0;exitY=0.5;exitDx=0;exitDy=0;entryX=0;entryY=0.5;entryDx=0;entryDy=0;" parent="WIyWlLk6GJQsqaUBKTNV-1" source="Y3jKgYXB_ApYThglsX_Y-1" target="ab9UltgPTbyfIHj8jIaH-84" edge="1">
          <mxGeometry relative="1" as="geometry" />
        </mxCell>
        <mxCell id="Y3jKgYXB_ApYThglsX_Y-1" value="Director Diplomado* ok" style="html=1;overflow=block;blockSpacing=1;whiteSpace=wrap;fontSize=16.7;align=center;spacing=9;strokeOpacity=0;fillOpacity=100;rounded=1;absoluteArcSize=1;arcSize=7.5;fillColor=#d7e9ff;strokeWidth=1.5;lucidId=1.17IZkgmfNq;" parent="WIyWlLk6GJQsqaUBKTNV-1" vertex="1">
          <mxGeometry x="-2440" y="-280" width="120" height="90" as="geometry" />
        </mxCell>
        <mxCell id="Y3jKgYXB_ApYThglsX_Y-75" style="edgeStyle=orthogonalEdgeStyle;rounded=0;orthogonalLoop=1;jettySize=auto;html=1;exitX=0;exitY=0.5;exitDx=0;exitDy=0;entryX=0;entryY=0.5;entryDx=0;entryDy=0;" parent="WIyWlLk6GJQsqaUBKTNV-1" source="Y3jKgYXB_ApYThglsX_Y-3" target="ab9UltgPTbyfIHj8jIaH-96" edge="1">
          <mxGeometry relative="1" as="geometry" />
        </mxCell>
        <mxCell id="Y3jKgYXB_ApYThglsX_Y-3" value="Tipo de Moneda&amp;nbsp; ok" style="html=1;overflow=block;blockSpacing=1;whiteSpace=wrap;fontSize=16.7;align=center;spacing=9;strokeOpacity=0;fillOpacity=100;rounded=1;absoluteArcSize=1;arcSize=7.5;fillColor=#d7e9ff;strokeWidth=1.5;lucidId=1.17IZkgmfNq;" parent="WIyWlLk6GJQsqaUBKTNV-1" vertex="1">
          <mxGeometry x="-1560" y="-720" width="120" height="90" as="geometry" />
        </mxCell>
        <mxCell id="Y3jKgYXB_ApYThglsX_Y-5" value="Horas Online ok" style="html=1;overflow=block;blockSpacing=1;whiteSpace=wrap;fontSize=16.7;align=center;spacing=9;strokeOpacity=0;fillOpacity=100;rounded=1;absoluteArcSize=1;arcSize=7.5;fillColor=#d7e9ff;strokeWidth=1.5;lucidId=1.17IZkgmfNq;" parent="WIyWlLk6GJQsqaUBKTNV-1" vertex="1">
          <mxGeometry x="-2160" y="-910" width="120" height="90" as="geometry" />
        </mxCell>
        <mxCell id="Y3jKgYXB_ApYThglsX_Y-64" style="edgeStyle=orthogonalEdgeStyle;rounded=0;orthogonalLoop=1;jettySize=auto;html=1;exitX=1;exitY=0.5;exitDx=0;exitDy=0;entryX=0.5;entryY=0;entryDx=0;entryDy=0;" parent="WIyWlLk6GJQsqaUBKTNV-1" source="Y3jKgYXB_ApYThglsX_Y-6" target="ab9UltgPTbyfIHj8jIaH-96" edge="1">
          <mxGeometry relative="1" as="geometry">
            <Array as="points">
              <mxPoint x="-1263" y="-473" />
              <mxPoint x="-1263" y="-40" />
              <mxPoint x="-1489" y="-40" />
            </Array>
          </mxGeometry>
        </mxCell>
        <mxCell id="Y3jKgYXB_ApYThglsX_Y-6" value="Tipo Programa* ok" style="html=1;overflow=block;blockSpacing=1;whiteSpace=wrap;fontSize=16.7;align=center;spacing=9;strokeOpacity=0;fillOpacity=100;rounded=1;absoluteArcSize=1;arcSize=7.5;fillColor=#d7e9ff;strokeWidth=1.5;lucidId=1.17IZkgmfNq;" parent="WIyWlLk6GJQsqaUBKTNV-1" vertex="1">
          <mxGeometry x="-1403" y="-518" width="120" height="90" as="geometry" />
        </mxCell>
        <mxCell id="Y3jKgYXB_ApYThglsX_Y-105" style="edgeStyle=orthogonalEdgeStyle;rounded=0;orthogonalLoop=1;jettySize=auto;html=1;exitX=0.5;exitY=1;exitDx=0;exitDy=0;entryX=0.5;entryY=0;entryDx=0;entryDy=0;" parent="WIyWlLk6GJQsqaUBKTNV-1" source="Y3jKgYXB_ApYThglsX_Y-24" target="Y3jKgYXB_ApYThglsX_Y-99" edge="1">
          <mxGeometry relative="1" as="geometry" />
        </mxCell>
        <mxCell id="Y3jKgYXB_ApYThglsX_Y-106" style="edgeStyle=orthogonalEdgeStyle;rounded=0;orthogonalLoop=1;jettySize=auto;html=1;exitX=0.5;exitY=1;exitDx=0;exitDy=0;entryX=0.5;entryY=0;entryDx=0;entryDy=0;" parent="WIyWlLk6GJQsqaUBKTNV-1" source="Y3jKgYXB_ApYThglsX_Y-24" target="Y3jKgYXB_ApYThglsX_Y-98" edge="1">
          <mxGeometry relative="1" as="geometry" />
        </mxCell>
        <mxCell id="Y3jKgYXB_ApYThglsX_Y-107" style="edgeStyle=orthogonalEdgeStyle;rounded=0;orthogonalLoop=1;jettySize=auto;html=1;exitX=0.5;exitY=1;exitDx=0;exitDy=0;entryX=0.5;entryY=0;entryDx=0;entryDy=0;" parent="WIyWlLk6GJQsqaUBKTNV-1" source="Y3jKgYXB_ApYThglsX_Y-24" target="Y3jKgYXB_ApYThglsX_Y-93" edge="1">
          <mxGeometry relative="1" as="geometry" />
        </mxCell>
        <mxCell id="Y3jKgYXB_ApYThglsX_Y-108" style="edgeStyle=orthogonalEdgeStyle;rounded=0;orthogonalLoop=1;jettySize=auto;html=1;exitX=0.5;exitY=1;exitDx=0;exitDy=0;entryX=0.5;entryY=0;entryDx=0;entryDy=0;" parent="WIyWlLk6GJQsqaUBKTNV-1" source="Y3jKgYXB_ApYThglsX_Y-24" target="Y3jKgYXB_ApYThglsX_Y-97" edge="1">
          <mxGeometry relative="1" as="geometry">
            <Array as="points">
              <mxPoint x="-828" y="-640" />
              <mxPoint x="-1020" y="-640" />
            </Array>
          </mxGeometry>
        </mxCell>
        <mxCell id="Y3jKgYXB_ApYThglsX_Y-109" style="edgeStyle=orthogonalEdgeStyle;rounded=0;orthogonalLoop=1;jettySize=auto;html=1;exitX=0.5;exitY=1;exitDx=0;exitDy=0;entryX=0.5;entryY=0;entryDx=0;entryDy=0;" parent="WIyWlLk6GJQsqaUBKTNV-1" source="Y3jKgYXB_ApYThglsX_Y-24" target="Y3jKgYXB_ApYThglsX_Y-103" edge="1">
          <mxGeometry relative="1" as="geometry" />
        </mxCell>
        <mxCell id="Y3jKgYXB_ApYThglsX_Y-110" style="edgeStyle=orthogonalEdgeStyle;rounded=0;orthogonalLoop=1;jettySize=auto;html=1;exitX=0.5;exitY=1;exitDx=0;exitDy=0;entryX=0.5;entryY=0;entryDx=0;entryDy=0;" parent="WIyWlLk6GJQsqaUBKTNV-1" source="Y3jKgYXB_ApYThglsX_Y-24" target="Y3jKgYXB_ApYThglsX_Y-95" edge="1">
          <mxGeometry relative="1" as="geometry" />
        </mxCell>
        <mxCell id="Y3jKgYXB_ApYThglsX_Y-111" style="edgeStyle=orthogonalEdgeStyle;rounded=0;orthogonalLoop=1;jettySize=auto;html=1;exitX=0.5;exitY=1;exitDx=0;exitDy=0;entryX=0.5;entryY=0;entryDx=0;entryDy=0;" parent="WIyWlLk6GJQsqaUBKTNV-1" source="Y3jKgYXB_ApYThglsX_Y-24" target="Y3jKgYXB_ApYThglsX_Y-100" edge="1">
          <mxGeometry relative="1" as="geometry" />
        </mxCell>
        <mxCell id="Y3jKgYXB_ApYThglsX_Y-112" style="edgeStyle=orthogonalEdgeStyle;rounded=0;orthogonalLoop=1;jettySize=auto;html=1;exitX=0.5;exitY=1;exitDx=0;exitDy=0;entryX=0.5;entryY=0;entryDx=0;entryDy=0;" parent="WIyWlLk6GJQsqaUBKTNV-1" source="Y3jKgYXB_ApYThglsX_Y-24" target="Y3jKgYXB_ApYThglsX_Y-102" edge="1">
          <mxGeometry relative="1" as="geometry">
            <Array as="points">
              <mxPoint x="-828" y="-640" />
              <mxPoint x="-687" y="-640" />
            </Array>
          </mxGeometry>
        </mxCell>
        <mxCell id="Y3jKgYXB_ApYThglsX_Y-113" style="edgeStyle=orthogonalEdgeStyle;rounded=0;orthogonalLoop=1;jettySize=auto;html=1;exitX=0.5;exitY=1;exitDx=0;exitDy=0;entryX=0.5;entryY=0;entryDx=0;entryDy=0;" parent="WIyWlLk6GJQsqaUBKTNV-1" source="Y3jKgYXB_ApYThglsX_Y-24" target="Y3jKgYXB_ApYThglsX_Y-96" edge="1">
          <mxGeometry relative="1" as="geometry">
            <Array as="points">
              <mxPoint x="-828" y="-640" />
              <mxPoint x="-510" y="-640" />
            </Array>
          </mxGeometry>
        </mxCell>
        <mxCell id="Y3jKgYXB_ApYThglsX_Y-119" style="edgeStyle=orthogonalEdgeStyle;rounded=0;orthogonalLoop=1;jettySize=auto;html=1;exitX=0.5;exitY=1;exitDx=0;exitDy=0;entryX=0.5;entryY=0;entryDx=0;entryDy=0;" parent="WIyWlLk6GJQsqaUBKTNV-1" source="Y3jKgYXB_ApYThglsX_Y-24" target="Y3jKgYXB_ApYThglsX_Y-114" edge="1">
          <mxGeometry relative="1" as="geometry" />
        </mxCell>
        <mxCell id="Y3jKgYXB_ApYThglsX_Y-120" style="edgeStyle=orthogonalEdgeStyle;rounded=0;orthogonalLoop=1;jettySize=auto;html=1;exitX=0.5;exitY=1;exitDx=0;exitDy=0;entryX=0.5;entryY=0;entryDx=0;entryDy=0;" parent="WIyWlLk6GJQsqaUBKTNV-1" source="Y3jKgYXB_ApYThglsX_Y-24" target="Y3jKgYXB_ApYThglsX_Y-115" edge="1">
          <mxGeometry relative="1" as="geometry" />
        </mxCell>
        <mxCell id="Y3jKgYXB_ApYThglsX_Y-24" value="Otro" style="html=1;overflow=block;blockSpacing=1;whiteSpace=wrap;fontSize=18.3;fontFamily=Helvetica;fontColor=#ffffff;spacing=3.8;strokeOpacity=0;fillOpacity=100;rounded=1;absoluteArcSize=1;arcSize=7.5;fillColor=#225798;strokeWidth=1.5;lucidId=0H17ufdto98P;" parent="WIyWlLk6GJQsqaUBKTNV-1" vertex="1">
          <mxGeometry x="-899.5" y="-770" width="142" height="96" as="geometry" />
        </mxCell>
        <mxCell id="Y3jKgYXB_ApYThglsX_Y-93" value="Coordinador curso*&lt;br&gt;&amp;nbsp;ok" style="html=1;overflow=block;blockSpacing=1;whiteSpace=wrap;fontSize=16.7;align=center;spacing=9;strokeOpacity=0;fillOpacity=100;rounded=1;absoluteArcSize=1;arcSize=7.5;fillColor=#d7e9ff;strokeWidth=1.5;lucidId=1.17IZkgmfNq;" parent="WIyWlLk6GJQsqaUBKTNV-1" vertex="1">
          <mxGeometry x="-1160" y="-600" width="120" height="90" as="geometry" />
        </mxCell>
        <mxCell id="Y3jKgYXB_ApYThglsX_Y-95" value="Meta ok" style="html=1;overflow=block;blockSpacing=1;whiteSpace=wrap;fontSize=16.7;align=center;spacing=9;strokeOpacity=0;fillOpacity=100;rounded=1;absoluteArcSize=1;arcSize=7.5;fillColor=#d7e9ff;strokeWidth=1.5;lucidId=1.17IZkgmfNq;" parent="WIyWlLk6GJQsqaUBKTNV-1" vertex="1">
          <mxGeometry x="-670" y="-598" width="120" height="90" as="geometry" />
        </mxCell>
        <mxCell id="Y3jKgYXB_ApYThglsX_Y-96" value="Valor Meta&lt;br&gt;&amp;nbsp;ok" style="html=1;overflow=block;blockSpacing=1;whiteSpace=wrap;fontSize=16.7;align=center;spacing=9;strokeOpacity=0;fillOpacity=100;rounded=1;absoluteArcSize=1;arcSize=7.5;fillColor=#d7e9ff;strokeWidth=1.5;lucidId=1.17IZkgmfNq;" parent="WIyWlLk6GJQsqaUBKTNV-1" vertex="1">
          <mxGeometry x="-570" y="-480" width="120" height="90" as="geometry" />
        </mxCell>
        <mxCell id="Y3jKgYXB_ApYThglsX_Y-97" value="Coordinador admisiÃ³n*&lt;br&gt;&amp;nbsp;ok" style="html=1;overflow=block;blockSpacing=1;whiteSpace=wrap;fontSize=16.7;align=center;spacing=9;strokeOpacity=0;fillOpacity=100;rounded=1;absoluteArcSize=1;arcSize=7.5;fillColor=#d7e9ff;strokeWidth=1.5;lucidId=1.17IZkgmfNq;" parent="WIyWlLk6GJQsqaUBKTNV-1" vertex="1">
          <mxGeometry x="-1080" y="-480" width="120" height="90" as="geometry" />
        </mxCell>
        <mxCell id="Y3jKgYXB_ApYThglsX_Y-98" value="Coordinador comercial*&lt;br&gt;&amp;nbsp;ok" style="html=1;overflow=block;blockSpacing=1;whiteSpace=wrap;fontSize=16.7;align=center;spacing=9;strokeOpacity=0;fillOpacity=100;rounded=1;absoluteArcSize=1;arcSize=7.5;fillColor=#d7e9ff;strokeWidth=1.5;lucidId=1.17IZkgmfNq;" parent="WIyWlLk6GJQsqaUBKTNV-1" vertex="1">
          <mxGeometry x="-1000" y="-600" width="120" height="90" as="geometry" />
        </mxCell>
        <mxCell id="Y3jKgYXB_ApYThglsX_Y-99" value="Consultor Corporativo*&lt;br&gt;&amp;nbsp;ok" style="html=1;overflow=block;blockSpacing=1;whiteSpace=wrap;fontSize=16.7;align=center;spacing=9;strokeOpacity=0;fillOpacity=100;rounded=1;absoluteArcSize=1;arcSize=7.5;fillColor=#d7e9ff;strokeWidth=1.5;lucidId=1.17IZkgmfNq;" parent="WIyWlLk6GJQsqaUBKTNV-1" vertex="1">
          <mxGeometry x="-923" y="-480" width="120" height="90" as="geometry" />
        </mxCell>
        <mxCell id="Y3jKgYXB_ApYThglsX_Y-100" value="Reglamento&amp;nbsp;&lt;br&gt;ok" style="html=1;overflow=block;blockSpacing=1;whiteSpace=wrap;fontSize=16.7;align=center;spacing=9;strokeOpacity=0;fillOpacity=100;rounded=1;absoluteArcSize=1;arcSize=7.5;fillColor=#d7e9ff;strokeWidth=1.5;lucidId=1.17IZkgmfNq;" parent="WIyWlLk6GJQsqaUBKTNV-1" vertex="1">
          <mxGeometry x="-483" y="-600" width="120" height="90" as="geometry" />
        </mxCell>
        <mxCell id="Y3jKgYXB_ApYThglsX_Y-102" value="Horas Pedagogicas&amp;nbsp;&lt;br&gt;ok" style="html=1;overflow=block;blockSpacing=1;whiteSpace=wrap;fontSize=16.7;align=center;spacing=9;strokeOpacity=0;fillOpacity=100;rounded=1;absoluteArcSize=1;arcSize=7.5;fillColor=#d7e9ff;strokeWidth=1.5;lucidId=1.17IZkgmfNq;" parent="WIyWlLk6GJQsqaUBKTNV-1" vertex="1">
          <mxGeometry x="-747" y="-480" width="120" height="90" as="geometry" />
        </mxCell>
        <mxCell id="Y3jKgYXB_ApYThglsX_Y-103" value="Cafe Ok" style="html=1;overflow=block;blockSpacing=1;whiteSpace=wrap;fontSize=16.7;align=center;spacing=9;strokeOpacity=0;fillOpacity=100;rounded=1;absoluteArcSize=1;arcSize=7.5;fillColor=#d7e9ff;strokeWidth=1.5;lucidId=1.17IZkgmfNq;" parent="WIyWlLk6GJQsqaUBKTNV-1" vertex="1">
          <mxGeometry x="-820" y="-600" width="120" height="90" as="geometry" />
        </mxCell>
        <mxCell id="Y3jKgYXB_ApYThglsX_Y-114" value="BotÃ³n para subir/cargar Diplomado ok" style="html=1;overflow=block;blockSpacing=1;whiteSpace=wrap;fontSize=16.7;align=center;spacing=9;strokeOpacity=0;fillOpacity=100;rounded=1;absoluteArcSize=1;arcSize=7.5;fillColor=#d7e9ff;strokeWidth=1.5;lucidId=1.17IZkgmfNq;" parent="WIyWlLk6GJQsqaUBKTNV-1" vertex="1">
          <mxGeometry x="-340" y="-600" width="120" height="90" as="geometry" />
        </mxCell>
        <mxCell id="Y3jKgYXB_ApYThglsX_Y-115" value="BotÃ³n para borrar Diplomado ok&lt;br&gt;" style="html=1;overflow=block;blockSpacing=1;whiteSpace=wrap;fontSize=16.7;align=center;spacing=9;strokeOpacity=0;fillOpacity=100;rounded=1;absoluteArcSize=1;arcSize=7.5;fillColor=#d7e9ff;strokeWidth=1.5;lucidId=1.17IZkgmfNq;" parent="WIyWlLk6GJQsqaUBKTNV-1" vertex="1">
          <mxGeometry x="-180" y="-600" width="120" height="90" as="geometry" />
        </mxCell>
        <mxCell id="Y3jKgYXB_ApYThglsX_Y-116" style="edgeStyle=orthogonalEdgeStyle;rounded=0;orthogonalLoop=1;jettySize=auto;html=1;entryX=0.5;entryY=1;entryDx=0;entryDy=0;" parent="WIyWlLk6GJQsqaUBKTNV-1" source="Y3jKgYXB_ApYThglsX_Y-118" target="Y3jKgYXB_ApYThglsX_Y-114" edge="1">
          <mxGeometry relative="1" as="geometry" />
        </mxCell>
        <mxCell id="Y3jKgYXB_ApYThglsX_Y-117" style="edgeStyle=orthogonalEdgeStyle;rounded=0;orthogonalLoop=1;jettySize=auto;html=1;exitX=0.5;exitY=0;exitDx=0;exitDy=0;entryX=0.5;entryY=1;entryDx=0;entryDy=0;" parent="WIyWlLk6GJQsqaUBKTNV-1" source="Y3jKgYXB_ApYThglsX_Y-118" target="Y3jKgYXB_ApYThglsX_Y-115" edge="1">
          <mxGeometry relative="1" as="geometry" />
        </mxCell>
        <mxCell id="Y3jKgYXB_ApYThglsX_Y-118" value="Botones" style="html=1;overflow=block;blockSpacing=1;whiteSpace=wrap;fontSize=18.3;fontFamily=Helvetica;fontColor=#ffffff;spacing=3.8;strokeOpacity=0;fillOpacity=100;rounded=1;absoluteArcSize=1;arcSize=7.5;fillColor=#225798;strokeWidth=1.5;lucidId=0H17ufdto98P;" parent="WIyWlLk6GJQsqaUBKTNV-1" vertex="1">
          <mxGeometry x="-270" y="-366" width="142" height="96" as="geometry" />
        </mxCell>
        <mxCell id="Y3jKgYXB_ApYThglsX_Y-121" value="&lt;h1&gt;Info&lt;/h1&gt;&lt;div&gt;&lt;br&gt;&lt;/div&gt;&lt;div&gt;Se debera consultar si se quiere buscar un Diplomado ya hecho o no, de ser asi se debe hacer una busqueda por Tipo y area.&lt;/div&gt;&lt;div&gt;&lt;br&gt;&lt;/div&gt;&lt;div&gt;Si no, se entrega formulario vacÃ­o&lt;/div&gt;" style="text;html=1;strokeColor=none;fillColor=none;spacing=5;spacingTop=-20;whiteSpace=wrap;overflow=hidden;rounded=0;" parent="WIyWlLk6GJQsqaUBKTNV-1" vertex="1">
          <mxGeometry x="-1630" y="-1120" width="190" height="170" as="geometry" />
        </mxCell>
        <mxCell id="0dnAhyFArxA2WBfBBbZn-0" value="&lt;h1&gt;TABLAS&lt;/h1&gt;&lt;div&gt;&lt;br&gt;&lt;/div&gt;&lt;div&gt;InformaciÃ³n de tablas que se deben crear para el buen funcionamiento del futuro formulario.&lt;/div&gt;&lt;div&gt;&lt;br&gt;&lt;/div&gt;&lt;div&gt;Tablas:&lt;/div&gt;&lt;div&gt;1. Diplomados&lt;/div&gt;&lt;div&gt;2. Secretaria&lt;/div&gt;&lt;div&gt;3. Profesor/Director&lt;/div&gt;&lt;div&gt;4. Valor diplomados&lt;br&gt;5. Tipo de Moneda&lt;br&gt;6. Tipo Diplomado&lt;/div&gt;&lt;div&gt;7. Area Negocios&lt;br&gt;8. Area Negocios Diplomado&lt;/div&gt;&lt;div&gt;9. Tipo programa&lt;/div&gt;&lt;div&gt;10. Jornadas&lt;/div&gt;&lt;div&gt;11. Modalidad&lt;/div&gt;&lt;div&gt;12. Coordinar Curso&lt;/div&gt;&lt;div&gt;13. Coordinador Comercial&lt;/div&gt;&lt;div&gt;14.Coordinador admision&lt;/div&gt;&lt;div&gt;15. Consultor Corporativo&lt;/div&gt;&lt;div&gt;16.&amp;nbsp;&lt;/div&gt;" style="text;html=1;strokeColor=none;fillColor=none;spacing=5;spacingTop=-20;whiteSpace=wrap;overflow=hidden;rounded=0;" vertex="1" parent="WIyWlLk6GJQsqaUBKTNV-1">
          <mxGeometry x="-960" y="-286" width="190" height="406" as="geometry" />
        </mxCell>
      </root>
    </mxGraphModel>
  </diagram>
</mxfile>
